<?xml version="1.0" encoding="UTF-8"?>
<svg version="1.1" xmlns="http://www.w3.org/2000/svg" width="1080" height="1080">
<path d="M0 0 C356.4 0 712.8 0 1080 0 C1080 356.4 1080 712.8 1080 1080 C723.6 1080 367.2 1080 0 1080 C0 723.6 0 367.2 0 0 Z " fill="#FEFEFE" transform="translate(0,0)"/>
<path d="M0 0 C1.16644043 -0.005476 1.16644043 -0.005476 2.35644531 -0.01106262 C4.93161761 -0.01917884 7.50616242 -0.00554325 10.08129883 0.0090332 C11.8738861 0.00955195 13.66647395 0.0090337 15.45906067 0.00752258 C19.22100288 0.00761237 22.9827311 0.01805034 26.74462891 0.03613281 C31.55182806 0.05873847 36.35871225 0.05937954 41.16594982 0.05261517 C44.87128972 0.04926129 48.57655873 0.05593327 52.28188515 0.0657444 C54.05319153 0.06957842 55.82450584 0.07075212 57.59581566 0.06915855 C60.08225675 0.0687848 62.56830572 0.08149665 65.0546875 0.09765625 C66.14058922 0.09394012 66.14058922 0.09394012 67.24842834 0.09014893 C81.43901151 0.23623487 95.41886389 6.76097256 105.57348633 16.50512695 C118.08676755 29.93059129 122.91978388 46.26473882 122.53833008 64.2824707 C121.99604288 79.14452924 116.01973796 93.13309124 106.35083008 104.37231445 C94.61609518 115.11669753 80.47159315 120.54337788 64.54223633 120.4699707 C63.30151367 120.46674805 62.06079102 120.46352539 60.7824707 120.46020508 C59.5056543 120.45182617 58.22883789 120.44344727 56.91333008 120.43481445 C54.9575 120.42804688 54.9575 120.42804688 52.9621582 120.42114258 C49.75833455 120.40940696 46.55460645 120.39298808 43.35083008 120.37231445 C43.36748466 121.50530975 43.36748466 121.50530975 43.38447571 122.66119385 C43.48469714 129.78250383 43.56080375 136.90347151 43.60989094 144.02530289 C43.63597599 147.6866898 43.67135156 151.34749362 43.72802734 155.00854492 C43.78238993 158.54232249 43.81225884 162.0755396 43.82521629 165.60970306 C43.83893975 167.61289473 43.8779671 169.61586113 43.91731262 171.61871338 C43.91769028 172.83967712 43.91806793 174.06064087 43.91845703 175.31860352 C43.93511162 176.93076752 43.93511162 176.93076752 43.95210266 178.57550049 C43.35083008 181.37231445 43.35083008 181.37231445 41.1050415 183.71832275 C38.29012716 185.40876849 36.94071776 185.87667158 33.71582031 185.88989258 C32.8281749 185.90250122 31.94052948 185.91510986 31.02598572 185.92810059 C29.60703758 185.9159552 29.60703758 185.9159552 28.15942383 185.90356445 C27.17716324 185.90739136 26.19490265 185.91121826 25.18287659 185.91516113 C23.11100232 185.91787774 21.03909361 185.91053421 18.96728516 185.89379883 C15.79552901 185.87236311 12.62603211 185.89362125 9.4543457 185.91918945 C7.43936675 185.91654658 5.4243892 185.91142245 3.40942383 185.90356445 C2.46143417 185.91166138 1.51344452 185.9197583 0.53672791 185.92810059 C-0.79001198 185.90918762 -0.79001198 185.90918762 -2.14355469 185.88989258 C-3.30673973 185.88511902 -3.30673973 185.88511902 -4.49342346 185.88024902 C-7.60620412 185.14681913 -8.68257646 183.88101753 -10.64916992 181.37231445 C-11.14974117 178.10861111 -11.14974117 178.10861111 -11.15037537 174.15391541 C-11.15590976 173.42574208 -11.16144416 172.69756876 -11.16714627 171.94732958 C-11.18076333 169.50653174 -11.16577877 167.06675462 -11.15087891 164.62597656 C-11.15466168 162.8765774 -11.16016139 161.12718124 -11.16725159 159.37779236 C-11.18122787 154.62578616 -11.17002167 149.87414114 -11.15354037 145.12215495 C-11.13970529 140.15341952 -11.14614811 135.18470538 -11.14967346 130.21595764 C-11.15237655 121.87242806 -11.1388906 113.52904225 -11.11572266 105.18554688 C-11.0891036 95.53222633 -11.08736822 85.87914608 -11.09911102 76.22580141 C-11.10988038 66.94703269 -11.10370892 57.6683511 -11.08955574 48.38958931 C-11.08378949 44.43707793 -11.0838836 40.48463018 -11.08862114 36.53211784 C-11.09338439 31.8806141 -11.08331645 27.2293744 -11.06166649 22.57792091 C-11.05608984 20.8682634 -11.05564134 19.15858056 -11.06061935 17.4489212 C-11.06655078 15.12022856 -11.05410932 12.79234909 -11.03684998 10.46372986 C-11.03442008 9.1590573 -11.03199018 7.85438475 -11.02948666 6.51017666 C-10.64916992 3.37231445 -10.64916992 3.37231445 -9.33631516 1.45248985 C-6.47254656 -0.38100517 -3.29119279 -0.03427126 0 0 Z " fill="#FDFDFD" transform="translate(556.649169921875,458.627685546875)"/>
<path d="M0 0 C0.92783798 -0.00945648 1.85567596 -0.01891296 2.81163025 -0.02865601 C4.31168358 -0.01954697 4.31168358 -0.01954697 5.84204102 -0.01025391 C7.38626488 -0.01455917 7.38626488 -0.01455917 8.96168518 -0.01895142 C11.1396642 -0.02099359 13.3176615 -0.01545307 15.49560547 -0.00292969 C18.82960076 0.01310498 22.16238069 -0.00276528 25.49633789 -0.02197266 C27.61157494 -0.01998993 29.72681124 -0.01614565 31.84204102 -0.01025391 C33.339058 -0.01936295 33.339058 -0.01936295 34.86631775 -0.02865601 C35.79730789 -0.01919952 36.72829803 -0.00974304 37.6875 0 C38.50451889 0.00238678 39.32153778 0.00477356 40.16331482 0.00723267 C43.08758242 0.50341829 44.38600866 1.20632851 46.40844727 3.38818359 C46.88946533 6.21659851 46.88946533 6.21659851 46.86254883 9.69555664 C46.8622467 10.99667892 46.86194458 12.29780121 46.8616333 13.63835144 C46.84120658 15.05887461 46.8203426 16.47939155 46.79907227 17.89990234 C46.79161096 19.35292279 46.7859175 20.80595331 46.78192139 22.25898743 C46.76665604 26.08151074 46.72736747 29.90342512 46.68310547 33.72570801 C46.64217159 37.62678794 46.62391446 41.52796638 46.60375977 45.42919922 C46.56087305 53.08250363 46.490517 60.73518068 46.40844727 68.38818359 C53.99844727 68.38818359 61.58844727 68.38818359 69.40844727 68.38818359 C69.39273682 66.43485107 69.37702637 64.48151855 69.36083984 62.46899414 C69.31248659 56.01895131 69.2780031 49.56895135 69.25301075 43.11877728 C69.23734718 39.20758133 69.21609664 35.29658126 69.18212891 31.38549805 C69.14955958 27.61186101 69.13159946 23.8384125 69.12381554 20.06464577 C69.11826761 18.62410323 69.10743391 17.18357114 69.0912571 15.74310875 C69.06951768 13.7273602 69.06822216 11.71142239 69.06787109 9.69555664 C69.05787834 7.97347237 69.05787834 7.97347237 69.04768372 6.21659851 C69.40844727 3.38818359 69.40844727 3.38818359 70.64276123 1.51922607 C72.89915782 0.07384997 74.32603064 0.00183118 77 -0.01586914 C77.92783798 -0.02855331 78.85567596 -0.04123749 79.81163025 -0.05430603 C81.31168358 -0.04990257 81.31168358 -0.04990257 82.84204102 -0.04541016 C84.38626488 -0.05327293 84.38626488 -0.05327293 85.96168518 -0.06129456 C88.13964943 -0.06772014 90.31764836 -0.06637085 92.49560547 -0.05786133 C95.82981152 -0.04935756 99.16230146 -0.07809648 102.49633789 -0.10986328 C104.61157175 -0.11147549 106.72680865 -0.11089738 108.84204102 -0.10791016 C109.84005234 -0.11914413 110.83806366 -0.13037811 111.86631775 -0.14195251 C113.26280296 -0.12788109 113.26280296 -0.12788109 114.6875 -0.11352539 C115.91302834 -0.11327614 115.91302834 -0.11327614 117.16331482 -0.11302185 C120.3462146 0.59753164 121.40475558 1.82825734 123.40844727 4.38818359 C123.91460514 7.63347626 123.91460514 7.63347626 123.92311096 11.56188965 C123.93005649 12.28527385 123.93700202 13.00865806 123.94415802 13.75396299 C123.96245862 16.17857386 123.95215588 18.60220963 123.94189453 21.02685547 C123.94895145 22.76478306 123.95769551 24.50270449 123.96800232 26.24061584 C123.99053043 30.96167183 123.98754882 35.68239312 123.97868085 40.40348244 C123.97357624 44.34257462 123.98085914 48.28160362 123.98815292 52.2206893 C124.00516245 61.51144003 124.00157506 70.80202656 123.98486328 80.09277344 C123.96793491 89.68368612 123.98378393 99.27414392 124.01608616 108.86500692 C124.04275762 117.09526489 124.05006486 125.32538104 124.04157108 133.55567789 C124.03663543 138.47316998 124.03889203 143.39038821 124.0593586 148.30784607 C124.07767778 152.93075153 124.07180345 157.55300097 124.04715919 162.1758709 C124.04213956 163.87382617 124.0456709 165.57183111 124.05830765 167.26974678 C124.0741806 169.58541683 124.05934562 171.89891125 124.03663635 174.21447754 C124.03605004 175.51085396 124.03546373 176.80723038 124.03485966 178.14289093 C123.40844727 181.38818359 123.40844727 181.38818359 121.01185608 183.80479431 C118.28471782 185.46343565 116.92008347 185.89286153 113.7734375 185.90576172 C112.88579208 185.91837036 111.99814667 185.930979 111.08360291 185.94396973 C109.66465477 185.93182434 109.66465477 185.93182434 108.21704102 185.91943359 C107.23478043 185.9232605 106.25251984 185.9270874 105.24049377 185.93103027 C103.16861951 185.93374688 101.0967108 185.92640335 99.02490234 185.90966797 C95.8531462 185.88823225 92.6836493 185.90949039 89.51196289 185.93505859 C87.49698393 185.93241572 85.48200638 185.92729159 83.46704102 185.91943359 C82.51905136 185.92753052 81.57106171 185.93562744 80.59434509 185.94396973 C79.26760521 185.92505676 79.26760521 185.92505676 77.9140625 185.90576172 C76.75087746 185.90098816 76.75087746 185.90098816 75.56419373 185.89611816 C72.44714441 185.16168249 71.29510452 183.95303676 69.40844727 181.38818359 C68.9274292 178.40155029 68.9274292 178.40155029 68.9543457 174.87548828 C68.9537616 174.23116852 68.95317749 173.58684875 68.95257568 172.92300415 C68.95535393 170.80146683 68.98642952 168.68134923 69.01782227 166.56005859 C69.02528568 165.08604703 69.03097814 163.61202553 69.03497314 162.13800049 C69.05022187 158.26453092 69.08949619 154.39166444 69.13378906 150.51843262 C69.17475875 146.56364093 69.19298773 142.60875148 69.21313477 138.65380859 C69.25599216 130.89829392 69.32633469 123.1434002 69.40844727 115.38818359 C61.81844727 115.38818359 54.22844727 115.38818359 46.40844727 115.38818359 C46.43463135 117.36657227 46.46081543 119.34496094 46.48779297 121.38330078 C46.56842977 127.92109602 46.62587526 134.45877354 46.66750813 140.99692917 C46.69359859 144.96096326 46.7289849 148.92445923 46.78564453 152.88818359 C46.83998653 156.7137302 46.86987195 160.53875938 46.88283348 164.36466217 C46.89206968 165.82396847 46.91010649 167.28324655 46.93709755 168.74233246 C46.97342154 170.78733918 46.9783919 172.83021068 46.97607422 174.87548828 C46.99272881 176.62088898 46.99272881 176.62088898 47.00971985 178.40155029 C46.40844727 181.38818359 46.40844727 181.38818359 44.16265869 183.76287842 C41.35364394 185.42052393 39.97940975 185.89261831 36.7734375 185.90576172 C35.88579208 185.91837036 34.99814667 185.930979 34.08360291 185.94396973 C32.66465477 185.93182434 32.66465477 185.93182434 31.21704102 185.91943359 C30.23478043 185.9232605 29.25251984 185.9270874 28.24049377 185.93103027 C26.16861951 185.93374688 24.0967108 185.92640335 22.02490234 185.90966797 C18.8531462 185.88823225 15.6836493 185.90949039 12.51196289 185.93505859 C10.49698393 185.93241572 8.48200638 185.92729159 6.46704102 185.91943359 C5.51905136 185.92753052 4.57106171 185.93562744 3.59434509 185.94396973 C2.26760521 185.92505676 2.26760521 185.92505676 0.9140625 185.90576172 C-0.24912254 185.90098816 -0.24912254 185.90098816 -1.43580627 185.89611816 C-4.54858693 185.16268827 -5.62495927 183.89688667 -7.59155273 181.38818359 C-8.09212399 178.12448025 -8.09212399 178.12448025 -8.09275818 174.16978455 C-8.09829258 173.44161122 -8.10382697 172.7134379 -8.10952908 171.96319872 C-8.12314614 169.52240088 -8.10816159 167.08262376 -8.09326172 164.6418457 C-8.0970445 162.89244655 -8.1025442 161.14305038 -8.1096344 159.3936615 C-8.12361068 154.6416553 -8.11240449 149.89001028 -8.09592319 145.13802409 C-8.0820881 140.16928866 -8.08853092 135.20057452 -8.09205627 130.23182678 C-8.09475937 121.8882972 -8.08127341 113.54491139 -8.05810547 105.20141602 C-8.03148641 95.54809547 -8.02975103 85.89501523 -8.04149383 76.24167055 C-8.05226319 66.96290183 -8.04609174 57.68422024 -8.03193855 48.40545845 C-8.02617231 44.45294707 -8.02626642 40.50049932 -8.03100395 36.54798698 C-8.0357672 31.89648324 -8.02569927 27.24524354 -8.0040493 22.59379005 C-7.99847265 20.88413254 -7.99802415 19.1744497 -8.00300217 17.46479034 C-8.0089336 15.13609771 -7.99649213 12.80821823 -7.97923279 10.479599 C-7.97680289 9.17492644 -7.974373 7.87025389 -7.97186947 6.5260458 C-7.59155273 3.38818359 -7.59155273 3.38818359 -6.19970703 1.46877956 C-4.04263714 0.01934089 -2.59037753 0.00757472 0 0 Z M-1.59155273 6.38818359 C-1.59155273 63.47818359 -1.59155273 120.56818359 -1.59155273 179.38818359 C12.26844727 179.38818359 26.12844727 179.38818359 40.40844727 179.38818359 C40.73844727 156.94818359 41.06844727 134.50818359 41.40844727 111.38818359 C51.25166264 106.46657591 63.40339792 110.38818359 74.40844727 110.38818359 C74.73844727 133.15818359 75.06844727 155.92818359 75.40844727 179.38818359 C89.26844727 179.38818359 103.12844727 179.38818359 117.40844727 179.38818359 C117.40844727 122.29818359 117.40844727 65.20818359 117.40844727 6.38818359 C103.54844727 6.38818359 89.68844727 6.38818359 75.40844727 6.38818359 C75.07844727 28.49818359 74.74844727 50.60818359 74.40844727 73.38818359 C63.84844727 73.38818359 53.28844727 73.38818359 42.40844727 73.38818359 C40.58195038 71.56168671 41.23574001 68.67150852 41.203125 66.21606445 C41.1932254 65.57218277 41.18332581 64.92830109 41.17312622 64.26490784 C41.14143199 62.12765228 41.11672277 59.99037446 41.09204102 57.85302734 C41.07147831 56.37471424 41.05048202 54.8964071 41.02906799 53.41810608 C40.97377667 49.52026188 40.92439869 45.62236401 40.8762207 41.72442627 C40.81724303 37.05127824 40.75097639 32.37822866 40.68592072 27.70516205 C40.58782239 20.59956251 40.49902733 13.49390089 40.40844727 6.38818359 C26.54844727 6.38818359 12.68844727 6.38818359 -1.59155273 6.38818359 Z " fill="#030303" transform="translate(413.591552734375,458.61181640625)"/>
<path d="M0 0 C1.16644043 -0.005476 1.16644043 -0.005476 2.35644531 -0.01106262 C4.93161761 -0.01917884 7.50616242 -0.00554325 10.08129883 0.0090332 C11.8738861 0.00955195 13.66647395 0.0090337 15.45906067 0.00752258 C19.22100288 0.00761237 22.9827311 0.01805034 26.74462891 0.03613281 C31.55182806 0.05873847 36.35871225 0.05937954 41.16594982 0.05261517 C44.87128972 0.04926129 48.57655873 0.05593327 52.28188515 0.0657444 C54.05319153 0.06957842 55.82450584 0.07075212 57.59581566 0.06915855 C60.08225675 0.0687848 62.56830572 0.08149665 65.0546875 0.09765625 C66.14058922 0.09394012 66.14058922 0.09394012 67.24842834 0.09014893 C81.43901151 0.23623487 95.41886389 6.76097256 105.57348633 16.50512695 C118.08676755 29.93059129 122.91978388 46.26473882 122.53833008 64.2824707 C121.99604288 79.14452924 116.01973796 93.13309124 106.35083008 104.37231445 C94.61609518 115.11669753 80.47159315 120.54337788 64.54223633 120.4699707 C63.30151367 120.46674805 62.06079102 120.46352539 60.7824707 120.46020508 C59.5056543 120.45182617 58.22883789 120.44344727 56.91333008 120.43481445 C54.9575 120.42804688 54.9575 120.42804688 52.9621582 120.42114258 C49.75833455 120.40940696 46.55460645 120.39298808 43.35083008 120.37231445 C43.36748466 121.50530975 43.36748466 121.50530975 43.38447571 122.66119385 C43.48469714 129.78250383 43.56080375 136.90347151 43.60989094 144.02530289 C43.63597599 147.6866898 43.67135156 151.34749362 43.72802734 155.00854492 C43.78238993 158.54232249 43.81225884 162.0755396 43.82521629 165.60970306 C43.83893975 167.61289473 43.8779671 169.61586113 43.91731262 171.61871338 C43.91769028 172.83967712 43.91806793 174.06064087 43.91845703 175.31860352 C43.93511162 176.93076752 43.93511162 176.93076752 43.95210266 178.57550049 C43.35083008 181.37231445 43.35083008 181.37231445 41.1050415 183.71832275 C38.29012716 185.40876849 36.94071776 185.87667158 33.71582031 185.88989258 C32.8281749 185.90250122 31.94052948 185.91510986 31.02598572 185.92810059 C29.60703758 185.9159552 29.60703758 185.9159552 28.15942383 185.90356445 C27.17716324 185.90739136 26.19490265 185.91121826 25.18287659 185.91516113 C23.11100232 185.91787774 21.03909361 185.91053421 18.96728516 185.89379883 C15.79552901 185.87236311 12.62603211 185.89362125 9.4543457 185.91918945 C7.43936675 185.91654658 5.4243892 185.91142245 3.40942383 185.90356445 C2.46143417 185.91166138 1.51344452 185.9197583 0.53672791 185.92810059 C-0.79001198 185.90918762 -0.79001198 185.90918762 -2.14355469 185.88989258 C-3.30673973 185.88511902 -3.30673973 185.88511902 -4.49342346 185.88024902 C-7.60620412 185.14681913 -8.68257646 183.88101753 -10.64916992 181.37231445 C-11.14974117 178.10861111 -11.14974117 178.10861111 -11.15037537 174.15391541 C-11.15590976 173.42574208 -11.16144416 172.69756876 -11.16714627 171.94732958 C-11.18076333 169.50653174 -11.16577877 167.06675462 -11.15087891 164.62597656 C-11.15466168 162.8765774 -11.16016139 161.12718124 -11.16725159 159.37779236 C-11.18122787 154.62578616 -11.17002167 149.87414114 -11.15354037 145.12215495 C-11.13970529 140.15341952 -11.14614811 135.18470538 -11.14967346 130.21595764 C-11.15237655 121.87242806 -11.1388906 113.52904225 -11.11572266 105.18554688 C-11.0891036 95.53222633 -11.08736822 85.87914608 -11.09911102 76.22580141 C-11.10988038 66.94703269 -11.10370892 57.6683511 -11.08955574 48.38958931 C-11.08378949 44.43707793 -11.0838836 40.48463018 -11.08862114 36.53211784 C-11.09338439 31.8806141 -11.08331645 27.2293744 -11.06166649 22.57792091 C-11.05608984 20.8682634 -11.05564134 19.15858056 -11.06061935 17.4489212 C-11.06655078 15.12022856 -11.05410932 12.79234909 -11.03684998 10.46372986 C-11.03442008 9.1590573 -11.03199018 7.85438475 -11.02948666 6.51017666 C-10.64916992 3.37231445 -10.64916992 3.37231445 -9.33631516 1.45248985 C-6.47254656 -0.38100517 -3.29119279 -0.03427126 0 0 Z M-4.64916992 6.37231445 C-4.64916992 63.46231445 -4.64916992 120.55231445 -4.64916992 179.37231445 C9.21083008 179.37231445 23.07083008 179.37231445 37.35083008 179.37231445 C37.41141602 174.83610352 37.47200195 170.29989258 37.53442383 165.6262207 C37.57489864 162.75967428 37.61566184 159.89313784 37.6574707 157.02661133 C37.72386525 152.4725271 37.78916699 147.91844492 37.84814453 143.36425781 C37.89573748 139.69432111 37.94807817 136.02448054 38.00377083 132.35465813 C38.02421745 130.95159219 38.04292665 129.54849986 38.0599041 128.14538765 C38.08389695 126.18654519 38.11453207 124.22778745 38.14550781 122.26904297 C38.16105209 121.15207535 38.17659637 120.03510773 38.19261169 118.8842926 C38.35083008 116.37231445 38.35083008 116.37231445 39.35083008 115.37231445 C41.45422472 115.26202907 43.56104543 115.21632636 45.66723633 115.1965332 C72.42370974 115.25459244 72.42370974 115.25459244 96.35083008 104.37231445 C97.05594727 103.85926758 97.76106445 103.3462207 98.48754883 102.81762695 C106.60867006 96.35166757 111.86509222 87.38528667 114.35083008 77.37231445 C114.55450195 76.5937207 114.75817383 75.81512695 114.96801758 75.01293945 C118.39532343 60.27082936 116.40063438 44.45896322 109.13989258 31.15356445 C101.54680315 19.34946036 90.96798082 10.98542435 77.35083008 7.37231445 C50.29019857 3.50650995 22.68619586 6.37231445 -4.64916992 6.37231445 Z " fill="#080808" transform="translate(556.649169921875,458.627685546875)"/>
<path d="M0 0 C1.38832031 -0.04930664 1.38832031 -0.04930664 2.8046875 -0.09960938 C9.44601154 -0.15120158 13.73471799 1.18428201 18.875 5.4375 C23.82834404 10.64486168 24.05381224 14.76222969 24.1875 21.8125 C24.24357422 23.74222656 24.24357422 23.74222656 24.30078125 25.7109375 C23.67969227 31.14689061 21.05242109 34.86936959 16.8125 38.25 C12.95691125 41.12118311 10.44253972 41.56216786 5.76953125 41.53515625 C4.78662109 41.53193359 3.80371094 41.52871094 2.79101562 41.52539062 C1.76685547 41.51701172 0.74269531 41.50863281 -0.3125 41.5 C-1.34826172 41.49548828 -2.38402344 41.49097656 -3.45117188 41.48632812 C-6.00917266 41.4745401 -8.56705733 41.45808515 -11.125 41.4375 C-12.72849894 38.23050212 -12.2880236 34.74148791 -12.29296875 31.21875 C-12.29629715 30.40506958 -12.29962555 29.59138916 -12.30305481 28.75305176 C-12.30812075 27.0314999 -12.31046324 25.30993821 -12.31030273 23.58837891 C-12.31249123 20.94807877 -12.33065567 18.30819503 -12.34960938 15.66796875 C-12.35254291 13.99739727 -12.35452797 12.32682379 -12.35546875 10.65625 C-12.36624702 9.46715027 -12.36624702 9.46715027 -12.37724304 8.25402832 C-12.33839036 -1.01720029 -7.81456098 0.04777925 0 0 Z " fill="#070707" transform="translate(606.125,499.5625)"/>
<path d="M0 0 C3.5578125 -0.0928125 3.5578125 -0.0928125 7.1875 -0.1875 C8.29387817 -0.22846802 8.29387817 -0.22846802 9.42260742 -0.27026367 C13.87041229 -0.32612402 16.52095982 0.229987 20 3 C22.72514615 5.7298125 23.88015472 7.29590899 24.53125 11.12109375 C24.42447469 22.45262323 24.42447469 22.45262323 20 27 C16.2297471 29.63736441 12.15759669 29.22545551 7.75 29.125 C5.1925 29.08375 2.635 29.0425 0 29 C0 19.43 0 9.86 0 0 Z " fill="#FDFDFD" transform="translate(600,506)"/>
</svg>
