<svg version="1.1" id="Layer_1" xmlns="http://www.w3.org/2000/svg" xmlns:xlink="http://www.w3.org/1999/xlink" x="0px" y="0px"
	 width="100%" viewBox="0 0 1200 1200" enable-background="new 0 0 1200 1200" xml:space="preserve">
<path fill="#000000" opacity="1.000000" stroke="none" 
	d="
M1.000000,444.000000 
	C1.000000,297.500000 1.016747,151.499985 0.905956,5.500072 
	C0.903110,1.750602 1.750933,0.906086 5.500023,0.907022 
	C402.500000,1.006185 799.500000,1.006186 1196.500000,0.907022 
	C1200.249023,0.906086 1201.093994,1.750933 1201.093140,5.500023 
	C1200.993896,402.500000 1200.993896,799.500000 1201.093140,1196.500000 
	C1201.093994,1200.249023 1200.249023,1201.093994 1196.500000,1201.093018 
	C799.500000,1200.993896 402.500000,1200.993896 5.500024,1201.093140 
	C1.750934,1201.093994 0.905109,1200.249146 0.906652,1196.500000 
	C1.009793,945.833313 1.000000,695.166687 1.000000,444.000000 
z"/>
<path fill="#FFC045" opacity="1.000000" stroke="none" 
	d="
M477.000061,119.831985 
	C676.978027,119.831985 876.455994,119.848946 1075.933838,119.729691 
	C1080.693604,119.726845 1082.265991,120.487823 1082.263428,125.788963 
	C1082.106079,442.587250 1082.106689,759.385620 1082.259155,1076.183838 
	C1082.261719,1081.421509 1080.782104,1082.276123 1075.961182,1082.274292 
	C759.329468,1082.156494 442.697754,1082.156982 126.066063,1082.269409 
	C121.306381,1082.271118 119.733688,1081.512085 119.736320,1076.210938 
	C119.893524,759.412720 119.892838,442.614349 119.740433,125.816055 
	C119.737907,120.578636 121.217308,119.717880 126.039040,119.723618 
	C242.859268,119.862549 359.679688,119.831985 477.000061,119.831985 
z"/>
<path fill="#000000" opacity="1.000000" stroke="none" 
	d="
M693.000122,146.168442 
	C812.324768,146.168442 931.149536,146.198715 1049.973999,146.056595 
	C1054.675415,146.050980 1056.000977,146.988632 1055.998779,151.926132 
	C1055.862915,451.404205 1055.863770,750.882324 1055.994385,1050.360474 
	C1055.996460,1055.117554 1054.553223,1055.922729 1050.209717,1055.921265 
	C750.731567,1055.822754 451.253448,1055.822388 151.775345,1055.923584 
	C147.401047,1055.925049 146.005707,1055.070557 146.007736,1050.345581 
	C146.136093,750.867432 146.137619,451.389282 146.000244,151.911194 
	C145.997971,146.947403 147.366959,146.055969 152.040970,146.059296 
	C332.193939,146.188065 512.346985,146.168442 693.000122,146.168442 
z"/>
<path fill="#FCBE44" opacity="1.000000" stroke="none" 
	d="
M575.089355,532.994446 
	C581.557739,532.994446 587.539795,532.994446 594.083679,532.994446 
	C591.322449,538.520630 592.159241,543.997498 592.153259,549.376038 
	C592.111267,587.185059 592.031067,624.994629 592.260010,662.802246 
	C592.287964,667.426636 590.915100,668.417603 586.718811,668.088562 
	C582.083618,667.725159 577.359375,667.631592 572.744873,668.107971 
	C567.880310,668.610229 567.103943,666.605164 567.163147,662.286011 
	C567.393555,645.466675 567.129639,628.640564 567.351807,611.821045 
	C567.403503,607.907227 566.369324,606.805969 562.437744,606.908386 
	C551.618713,607.189941 540.785156,607.129883 529.962524,606.929993 
	C526.715332,606.870056 525.784607,607.753601 525.815979,611.045288 
	C525.980957,628.365906 525.733215,645.691406 526.006104,663.009338 
	C526.073975,667.314697 524.785339,668.387390 520.726746,668.091797 
	C515.756348,667.729858 510.723969,667.764893 505.747803,668.085266 
	C502.081390,668.321350 500.964142,667.339294 501.007111,663.485046 
	C501.224396,644.000000 501.106964,624.511230 501.106995,605.023804 
	C501.106995,582.538269 501.202332,560.051941 501.013458,537.567993 
	C500.981903,533.810547 501.940247,532.741455 505.693268,532.902649 
	C512.988220,533.215942 520.306091,532.994446 528.183899,532.994446 
	C524.641479,539.685181 526.059326,546.400391 525.942200,552.947876 
	C525.757507,563.271240 526.006836,573.602417 525.823120,583.925842 
	C525.769043,586.967957 526.584656,587.607788 529.628540,587.545410 
	C540.902222,587.314270 552.186157,587.376892 563.461792,587.577942 
	C566.452148,587.631226 567.358459,586.871948 567.325684,583.813232 
	C567.170532,569.324219 567.256775,554.832642 567.257080,540.341980 
	C567.257263,532.995178 567.257385,532.995178 575.089355,532.994446 
z"/>
<path fill="#FCBE44" opacity="1.000000" stroke="none" 
	d="
M682.797974,605.938599 
	C671.608276,611.479004 659.938782,611.071350 648.305298,611.018066 
	C636.131165,610.962219 636.130981,611.005554 636.130981,622.976501 
	C636.130920,636.632446 636.027222,650.289795 636.206421,663.943420 
	C636.249146,667.199341 635.374634,668.231934 632.080017,668.080383 
	C626.263550,667.812744 620.422607,667.890015 614.598633,668.056824 
	C611.967896,668.132141 611.205688,667.251892 611.209900,664.648010 
	C611.278625,621.848389 611.269775,579.048523 611.227417,536.248840 
	C611.225220,534.054077 611.623108,532.881104 614.201843,532.958008 
	C631.988953,533.488220 649.835999,531.786682 667.569519,533.889587 
	C686.122681,536.089600 698.563721,547.044128 701.869019,563.569214 
	C705.046997,579.457336 700.137268,596.882507 682.797974,605.938599 
z"/>
<path fill="#040301" opacity="1.000000" stroke="none" 
	d="
M673.915649,583.777222 
	C670.315308,587.813049 666.073486,589.664490 661.096191,590.337219 
	C653.639404,591.345032 646.174011,590.545410 638.719299,590.816467 
	C636.372986,590.901794 636.103821,589.398804 636.109619,587.531921 
	C636.141235,577.389954 636.126404,567.247803 636.121704,557.105713 
	C636.120972,555.576538 635.973267,554.075867 638.289612,554.113342 
	C645.766296,554.234192 653.337952,553.536621 660.702576,554.481934 
	C676.262695,556.479370 682.247864,569.927368 673.915649,583.777222 
z"/>
</svg>